<svg id="visual" viewBox="0 0 500 250" width="500" height="250" xmlns="http://www.w3.org/2000/svg" xmlns:xlink="http://www.w3.org/1999/xlink" version="1.1"><rect x="0" y="0" width="500" height="250" fill="#027a5c"></rect><path d="M0 213L38 213L38 230L77 230L77 222L115 222L115 232L154 232L154 224L192 224L192 212L231 212L231 231L269 231L269 212L308 212L308 214L346 214L346 224L385 224L385 226L423 226L423 214L462 214L462 222L500 222L500 215L500 0L500 0L462 0L462 0L423 0L423 0L385 0L385 0L346 0L346 0L308 0L308 0L269 0L269 0L231 0L231 0L192 0L192 0L154 0L154 0L115 0L115 0L77 0L77 0L38 0L38 0L0 0Z" fill="#028564"></path><path d="M0 197L38 197L38 200L77 200L77 184L115 184L115 184L154 184L154 193L192 193L192 197L231 197L231 186L269 186L269 188L308 188L308 200L346 200L346 196L385 196L385 203L423 203L423 197L462 197L462 196L500 196L500 199L500 0L500 0L462 0L462 0L423 0L423 0L385 0L385 0L346 0L346 0L308 0L308 0L269 0L269 0L231 0L231 0L192 0L192 0L154 0L154 0L115 0L115 0L77 0L77 0L38 0L38 0L0 0Z" fill="#007d7a"></path><path d="M0 169L38 169L38 160L77 160L77 169L115 169L115 156L154 156L154 176L192 176L192 173L231 173L231 164L269 164L269 162L308 162L308 167L346 167L346 172L385 172L385 167L423 167L423 176L462 176L462 155L500 155L500 168L500 0L500 0L462 0L462 0L423 0L423 0L385 0L385 0L346 0L346 0L308 0L308 0L269 0L269 0L231 0L231 0L192 0L192 0L154 0L154 0L115 0L115 0L77 0L77 0L38 0L38 0L0 0Z" fill="#007388"></path><path d="M0 139L38 139L38 137L77 137L77 141L115 141L115 148L154 148L154 138L192 138L192 133L231 133L231 142L269 142L269 131L308 131L308 139L346 139L346 145L385 145L385 128L423 128L423 138L462 138L462 131L500 131L500 140L500 0L500 0L462 0L462 0L423 0L423 0L385 0L385 0L346 0L346 0L308 0L308 0L269 0L269 0L231 0L231 0L192 0L192 0L154 0L154 0L115 0L115 0L77 0L77 0L38 0L38 0L0 0Z" fill="#00678d"></path><path d="M0 112L38 112L38 121L77 121L77 114L115 114L115 102L154 102L154 107L192 107L192 112L231 112L231 99L269 99L269 106L308 106L308 115L346 115L346 114L385 114L385 103L423 103L423 119L462 119L462 103L500 103L500 110L500 0L500 0L462 0L462 0L423 0L423 0L385 0L385 0L346 0L346 0L308 0L308 0L269 0L269 0L231 0L231 0L192 0L192 0L154 0L154 0L115 0L115 0L77 0L77 0L38 0L38 0L0 0Z" fill="#005989"></path><path d="M0 78L38 78L38 89L77 89L77 89L115 89L115 73L154 73L154 90L192 90L192 71L231 71L231 81L269 81L269 90L308 90L308 76L346 76L346 84L385 84L385 81L423 81L423 80L462 80L462 83L500 83L500 78L500 0L500 0L462 0L462 0L423 0L423 0L385 0L385 0L346 0L346 0L308 0L308 0L269 0L269 0L231 0L231 0L192 0L192 0L154 0L154 0L115 0L115 0L77 0L77 0L38 0L38 0L0 0Z" fill="#004a84"></path><path d="M0 54L38 54L38 49L77 49L77 53L115 53L115 57L154 57L154 54L192 54L192 60L231 60L231 52L269 52L269 49L308 49L308 61L346 61L346 66L385 66L385 45L423 45L423 52L462 52L462 63L500 63L500 55L500 0L500 0L462 0L462 0L423 0L423 0L385 0L385 0L346 0L346 0L308 0L308 0L269 0L269 0L231 0L231 0L192 0L192 0L154 0L154 0L115 0L115 0L77 0L77 0L38 0L38 0L0 0Z" fill="#1b3a7c"></path><path d="M0 20L38 20L38 31L77 31L77 25L115 25L115 33L154 33L154 33L192 33L192 32L231 32L231 16L269 16L269 38L308 38L308 38L346 38L346 37L385 37L385 22L423 22L423 36L462 36L462 19L500 19L500 23L500 0L500 0L462 0L462 0L423 0L423 0L385 0L385 0L346 0L346 0L308 0L308 0L269 0L269 0L231 0L231 0L192 0L192 0L154 0L154 0L115 0L115 0L77 0L77 0L38 0L38 0L0 0Z" fill="#2e286f"></path></svg>