<svg id="visual" viewBox="0 0 500 250" width="500" height="250" xmlns="http://www.w3.org/2000/svg" xmlns:xlink="http://www.w3.org/1999/xlink" version="1.1"><path d="M464 250L469 250L469 232L454 232L454 214L464 214L464 196L454 196L454 179L454 179L454 161L459 161L459 143L444 143L444 125L449 125L449 107L449 107L449 89L454 89L454 71L434 71L434 54L474 54L474 36L449 36L449 18L449 18L449 0L500 0L500 18L500 18L500 36L500 36L500 54L500 54L500 71L500 71L500 89L500 89L500 107L500 107L500 125L500 125L500 143L500 143L500 161L500 161L500 179L500 179L500 196L500 196L500 214L500 214L500 232L500 232L500 250L500 250Z" fill="#06a77d"></path><path d="M424 250L449 250L449 232L429 232L429 214L419 214L419 196L429 196L429 179L414 179L414 161L409 161L409 143L399 143L399 125L414 125L414 107L424 107L424 89L409 89L409 71L409 71L409 54L449 54L449 36L424 36L424 18L414 18L414 0L450 0L450 18L450 18L450 36L475 36L475 54L435 54L435 71L455 71L455 89L450 89L450 107L450 107L450 125L445 125L445 143L460 143L460 161L455 161L455 179L455 179L455 196L465 196L465 214L455 214L455 232L470 232L470 250L465 250Z" fill="#009489"></path><path d="M394 250L414 250L414 232L389 232L389 214L399 214L399 196L394 196L394 179L389 179L389 161L369 161L369 143L379 143L379 125L369 125L369 107L394 107L394 89L374 89L374 71L379 71L379 54L419 54L419 36L379 36L379 18L394 18L394 0L415 0L415 18L425 18L425 36L450 36L450 54L410 54L410 71L410 71L410 89L425 89L425 107L415 107L415 125L400 125L400 143L410 143L410 161L415 161L415 179L430 179L430 196L420 196L420 214L430 214L430 232L450 232L450 250L425 250Z" fill="#007f8d"></path><path d="M274 250L314 250L314 232L244 232L244 214L249 214L249 196L299 196L299 179L244 179L244 161L244 161L244 143L269 143L269 125L264 125L264 107L319 107L319 89L244 89L244 71L254 71L254 54L294 54L294 36L304 36L304 18L299 18L299 0L395 0L395 18L380 18L380 36L420 36L420 54L380 54L380 71L375 71L375 89L395 89L395 107L370 107L370 125L380 125L380 143L370 143L370 161L390 161L390 179L395 179L395 196L400 196L400 214L390 214L390 232L415 232L415 250L395 250Z" fill="#006a86"></path><path d="M249 250L279 250L279 232L214 232L214 214L209 214L209 196L269 196L269 179L214 179L214 161L224 161L224 143L229 143L229 125L244 125L244 107L289 107L289 89L209 89L209 71L234 71L234 54L269 54L269 36L274 36L274 18L269 18L269 0L300 0L300 18L305 18L305 36L295 36L295 54L255 54L255 71L245 71L245 89L320 89L320 107L265 107L265 125L270 125L270 143L245 143L245 161L245 161L245 179L300 179L300 196L250 196L250 214L245 214L245 232L315 232L315 250L275 250Z" fill="#005576"></path><path d="M179 250L209 250L209 232L169 232L169 214L164 214L164 196L224 196L224 179L154 179L154 161L194 161L194 143L164 143L164 125L214 125L214 107L229 107L229 89L164 89L164 71L184 71L184 54L194 54L194 36L234 36L234 18L199 18L199 0L270 0L270 18L275 18L275 36L270 36L270 54L235 54L235 71L210 71L210 89L290 89L290 107L245 107L245 125L230 125L230 143L225 143L225 161L215 161L215 179L270 179L270 196L210 196L210 214L215 214L215 232L280 232L280 250L250 250Z" fill="#1c4161"></path><path d="M64 250L104 250L104 232L104 232L104 214L94 214L94 196L94 196L94 179L79 179L79 161L69 161L69 143L104 143L104 125L89 125L89 107L84 107L84 89L89 89L89 71L84 71L84 54L94 54L94 36L84 36L84 18L94 18L94 0L200 0L200 18L235 18L235 36L195 36L195 54L185 54L185 71L165 71L165 89L230 89L230 107L215 107L215 125L165 125L165 143L195 143L195 161L155 161L155 179L225 179L225 196L165 196L165 214L170 214L170 232L210 232L210 250L180 250Z" fill="#212e4a"></path><path d="M39 250L69 250L69 232L74 232L74 214L74 214L74 196L79 196L79 179L54 179L54 161L54 161L54 143L74 143L74 125L74 125L74 107L64 107L64 89L64 89L64 71L64 71L64 54L59 54L59 36L49 36L49 18L69 18L69 0L95 0L95 18L85 18L85 36L95 36L95 54L85 54L85 71L90 71L90 89L85 89L85 107L90 107L90 125L105 125L105 143L70 143L70 161L80 161L80 179L95 179L95 196L95 196L95 214L105 214L105 232L105 232L105 250L65 250Z" fill="#1f1c32"></path><path d="M0 250L0 250L0 232L0 232L0 214L0 214L0 196L0 196L0 179L0 179L0 161L0 161L0 143L0 143L0 125L0 125L0 107L0 107L0 89L0 89L0 71L0 71L0 54L0 54L0 36L0 36L0 18L0 18L0 0L70 0L70 18L50 18L50 36L60 36L60 54L65 54L65 71L65 71L65 89L65 89L65 107L75 107L75 125L75 125L75 143L55 143L55 161L55 161L55 179L80 179L80 196L75 196L75 214L75 214L75 232L70 232L70 250L40 250Z" fill="#170a1c"></path></svg>