<svg id="visual" viewBox="0 0 500 250" width="500" height="250" xmlns="http://www.w3.org/2000/svg" xmlns:xlink="http://www.w3.org/1999/xlink" version="1.1"><rect x="0" y="0" width="500" height="250" fill="#170A1C"></rect><path d="M0 146L9.3 142.7C18.7 139.3 37.3 132.7 55.8 133.7C74.3 134.7 92.7 143.3 111.2 144.3C129.7 145.3 148.3 138.7 166.8 138C185.3 137.3 203.7 142.7 222.2 140.5C240.7 138.3 259.3 128.7 277.8 128.3C296.3 128 314.7 137 333.2 139.5C351.7 142 370.3 138 388.8 133.8C407.3 129.7 425.7 125.3 444.2 123.5C462.7 121.7 481.3 122.3 490.7 122.7L500 123L500 0L490.7 0C481.3 0 462.7 0 444.2 0C425.7 0 407.3 0 388.8 0C370.3 0 351.7 0 333.2 0C314.7 0 296.3 0 277.8 0C259.3 0 240.7 0 222.2 0C203.7 0 185.3 0 166.8 0C148.3 0 129.7 0 111.2 0C92.7 0 74.3 0 55.8 0C37.3 0 18.7 0 9.3 0L0 0Z" fill="#2e286f"></path><path d="M0 109L9.3 112.7C18.7 116.3 37.3 123.7 55.8 123.5C74.3 123.3 92.7 115.7 111.2 112.3C129.7 109 148.3 110 166.8 109.2C185.3 108.3 203.7 105.7 222.2 108C240.7 110.3 259.3 117.7 277.8 122.2C296.3 126.7 314.7 128.3 333.2 127.7C351.7 127 370.3 124 388.8 123C407.3 122 425.7 123 444.2 123C462.7 123 481.3 122 490.7 121.5L500 121L500 0L490.7 0C481.3 0 462.7 0 444.2 0C425.7 0 407.3 0 388.8 0C370.3 0 351.7 0 333.2 0C314.7 0 296.3 0 277.8 0C259.3 0 240.7 0 222.2 0C203.7 0 185.3 0 166.8 0C148.3 0 129.7 0 111.2 0C92.7 0 74.3 0 55.8 0C37.3 0 18.7 0 9.3 0L0 0Z" fill="#1a4284"></path><path d="M0 94L9.3 93.3C18.7 92.7 37.3 91.3 55.8 90.5C74.3 89.7 92.7 89.3 111.2 91.8C129.7 94.3 148.3 99.7 166.8 101C185.3 102.3 203.7 99.7 222.2 98.7C240.7 97.7 259.3 98.3 277.8 97C296.3 95.7 314.7 92.3 333.2 90C351.7 87.7 370.3 86.3 388.8 86.7C407.3 87 425.7 89 444.2 91.3C462.7 93.7 481.3 96.3 490.7 97.7L500 99L500 0L490.7 0C481.3 0 462.7 0 444.2 0C425.7 0 407.3 0 388.8 0C370.3 0 351.7 0 333.2 0C314.7 0 296.3 0 277.8 0C259.3 0 240.7 0 222.2 0C203.7 0 185.3 0 166.8 0C148.3 0 129.7 0 111.2 0C92.7 0 74.3 0 55.8 0C37.3 0 18.7 0 9.3 0L0 0Z" fill="#005994"></path><path d="M0 77L9.3 79.7C18.7 82.3 37.3 87.7 55.8 88C74.3 88.3 92.7 83.7 111.2 82.5C129.7 81.3 148.3 83.7 166.8 83.5C185.3 83.3 203.7 80.7 222.2 81.7C240.7 82.7 259.3 87.3 277.8 87.8C296.3 88.3 314.7 84.7 333.2 82.8C351.7 81 370.3 81 388.8 79C407.3 77 425.7 73 444.2 72.3C462.7 71.7 481.3 74.3 490.7 75.7L500 77L500 0L490.7 0C481.3 0 462.7 0 444.2 0C425.7 0 407.3 0 388.8 0C370.3 0 351.7 0 333.2 0C314.7 0 296.3 0 277.8 0C259.3 0 240.7 0 222.2 0C203.7 0 185.3 0 166.8 0C148.3 0 129.7 0 111.2 0C92.7 0 74.3 0 55.8 0C37.3 0 18.7 0 9.3 0L0 0Z" fill="#00709f"></path><path d="M0 72L9.3 70.2C18.7 68.3 37.3 64.7 55.8 62.3C74.3 60 92.7 59 111.2 60.5C129.7 62 148.3 66 166.8 66.3C185.3 66.7 203.7 63.3 222.2 61C240.7 58.7 259.3 57.3 277.8 58C296.3 58.7 314.7 61.3 333.2 62.3C351.7 63.3 370.3 62.7 388.8 61.7C407.3 60.7 425.7 59.3 444.2 59.3C462.7 59.3 481.3 60.7 490.7 61.3L500 62L500 0L490.7 0C481.3 0 462.7 0 444.2 0C425.7 0 407.3 0 388.8 0C370.3 0 351.7 0 333.2 0C314.7 0 296.3 0 277.8 0C259.3 0 240.7 0 222.2 0C203.7 0 185.3 0 166.8 0C148.3 0 129.7 0 111.2 0C92.7 0 74.3 0 55.8 0C37.3 0 18.7 0 9.3 0L0 0Z" fill="#0085a4"></path><path d="M0 44L9.3 43.8C18.7 43.7 37.3 43.3 55.8 43C74.3 42.7 92.7 42.3 111.2 41.5C129.7 40.7 148.3 39.3 166.8 40.3C185.3 41.3 203.7 44.7 222.2 46.8C240.7 49 259.3 50 277.8 50C296.3 50 314.7 49 333.2 48.8C351.7 48.7 370.3 49.3 388.8 47.5C407.3 45.7 425.7 41.3 444.2 40.3C462.7 39.3 481.3 41.7 490.7 42.8L500 44L500 0L490.7 0C481.3 0 462.7 0 444.2 0C425.7 0 407.3 0 388.8 0C370.3 0 351.7 0 333.2 0C314.7 0 296.3 0 277.8 0C259.3 0 240.7 0 222.2 0C203.7 0 185.3 0 166.8 0C148.3 0 129.7 0 111.2 0C92.7 0 74.3 0 55.8 0C37.3 0 18.7 0 9.3 0L0 0Z" fill="#009898"></path><path d="M0 27L9.3 26.2C18.7 25.3 37.3 23.7 55.8 23.5C74.3 23.3 92.7 24.7 111.2 24.7C129.7 24.7 148.3 23.3 166.8 23.5C185.3 23.7 203.7 25.3 222.2 25.7C240.7 26 259.3 25 277.8 24.2C296.3 23.3 314.7 22.7 333.2 22.3C351.7 22 370.3 22 388.8 22.2C407.3 22.3 425.7 22.7 444.2 23C462.7 23.3 481.3 23.7 490.7 23.8L500 24L500 0L490.7 0C481.3 0 462.7 0 444.2 0C425.7 0 407.3 0 388.8 0C370.3 0 351.7 0 333.2 0C314.7 0 296.3 0 277.8 0C259.3 0 240.7 0 222.2 0C203.7 0 185.3 0 166.8 0C148.3 0 129.7 0 111.2 0C92.7 0 74.3 0 55.8 0C37.3 0 18.7 0 9.3 0L0 0Z" fill="#06a77d"></path></svg>