<svg id="visual" viewBox="0 0 500 250" width="500" height="250" xmlns="http://www.w3.org/2000/svg" xmlns:xlink="http://www.w3.org/1999/xlink" version="1.1"><path d="M0 19L7.5 17.7C15 16.3 30 13.7 45.2 12.3C60.3 11 75.7 11 90.8 12.3C106 13.7 121 16.3 136.2 16.3C151.3 16.3 166.7 13.7 181.8 13.7C197 13.7 212 16.3 227.2 16C242.3 15.7 257.7 12.3 272.8 11C288 9.7 303 10.3 318.2 12.3C333.3 14.3 348.7 17.7 363.8 18.2C379 18.7 394 16.3 409.2 15.2C424.3 14 439.7 14 454.8 15.7C470 17.3 485 20.7 492.5 22.3L500 24L500 0L492.5 0C485 0 470 0 454.8 0C439.7 0 424.3 0 409.2 0C394 0 379 0 363.8 0C348.7 0 333.3 0 318.2 0C303 0 288 0 272.8 0C257.7 0 242.3 0 227.2 0C212 0 197 0 181.8 0C166.7 0 151.3 0 136.2 0C121 0 106 0 90.8 0C75.7 0 60.3 0 45.2 0C30 0 15 0 7.5 0L0 0Z" fill="#027a5c"></path><path d="M0 96L7.5 93.2C15 90.3 30 84.7 45.2 79.7C60.3 74.7 75.7 70.3 90.8 66.5C106 62.7 121 59.3 136.2 64C151.3 68.7 166.7 81.3 181.8 87.7C197 94 212 94 227.2 91C242.3 88 257.7 82 272.8 81.5C288 81 303 86 318.2 87.3C333.3 88.7 348.7 86.3 363.8 78.5C379 70.7 394 57.3 409.2 56.8C424.3 56.3 439.7 68.7 454.8 72C470 75.3 485 69.7 492.5 66.8L500 64L500 22L492.5 20.3C485 18.7 470 15.3 454.8 13.7C439.7 12 424.3 12 409.2 13.2C394 14.3 379 16.7 363.8 16.2C348.7 15.7 333.3 12.3 318.2 10.3C303 8.3 288 7.7 272.8 9C257.7 10.3 242.3 13.7 227.2 14C212 14.3 197 11.7 181.8 11.7C166.7 11.7 151.3 14.3 136.2 14.3C121 14.3 106 11.7 90.8 10.3C75.7 9 60.3 9 45.2 10.3C30 11.7 15 14.3 7.5 15.7L0 17Z" fill="#028564"></path><path d="M0 121L7.5 117.3C15 113.7 30 106.3 45.2 100.2C60.3 94 75.7 89 90.8 87.3C106 85.7 121 87.3 136.2 91C151.3 94.7 166.7 100.3 181.8 103.7C197 107 212 108 227.2 105.5C242.3 103 257.7 97 272.8 96.5C288 96 303 101 318.2 104.3C333.3 107.7 348.7 109.3 363.8 101.8C379 94.3 394 77.7 409.2 76.5C424.3 75.3 439.7 89.7 454.8 94.7C470 99.7 485 95.3 492.5 93.2L500 91L500 62L492.5 64.8C485 67.7 470 73.3 454.8 70C439.7 66.7 424.3 54.3 409.2 54.8C394 55.3 379 68.7 363.8 76.5C348.7 84.3 333.3 86.7 318.2 85.3C303 84 288 79 272.8 79.5C257.7 80 242.3 86 227.2 89C212 92 197 92 181.8 85.7C166.7 79.3 151.3 66.7 136.2 62C121 57.3 106 60.7 90.8 64.5C75.7 68.3 60.3 72.7 45.2 77.7C30 82.7 15 88.3 7.5 91.2L0 94Z" fill="#03906c"></path><path d="M0 154L7.5 153.2C15 152.3 30 150.7 45.2 148.2C60.3 145.7 75.7 142.3 90.8 144.3C106 146.3 121 153.7 136.2 156.5C151.3 159.3 166.7 157.7 181.8 154.3C197 151 212 146 227.2 144C242.3 142 257.7 143 272.8 143C288 143 303 142 318.2 142.8C333.3 143.7 348.7 146.3 363.8 145.2C379 144 394 139 409.2 137.3C424.3 135.7 439.7 137.3 454.8 140.2C470 143 485 147 492.5 149L500 151L500 89L492.5 91.2C485 93.3 470 97.7 454.8 92.7C439.7 87.7 424.3 73.3 409.2 74.5C394 75.7 379 92.3 363.8 99.8C348.7 107.3 333.3 105.7 318.2 102.3C303 99 288 94 272.8 94.5C257.7 95 242.3 101 227.2 103.5C212 106 197 105 181.8 101.7C166.7 98.3 151.3 92.7 136.2 89C121 85.3 106 83.7 90.8 85.3C75.7 87 60.3 92 45.2 98.2C30 104.3 15 111.7 7.5 115.3L0 119Z" fill="#049c75"></path><path d="M0 171L7.5 171.8C15 172.7 30 174.3 45.2 172.7C60.3 171 75.7 166 90.8 168.2C106 170.3 121 179.7 136.2 181.3C151.3 183 166.7 177 181.8 172C197 167 212 163 227.2 162.2C242.3 161.3 257.7 163.7 272.8 164.8C288 166 303 166 318.2 167.3C333.3 168.7 348.7 171.3 363.8 171C379 170.7 394 167.3 409.2 164.3C424.3 161.3 439.7 158.7 454.8 158.2C470 157.7 485 159.3 492.5 160.2L500 161L500 149L492.5 147C485 145 470 141 454.8 138.2C439.7 135.3 424.3 133.7 409.2 135.3C394 137 379 142 363.8 143.2C348.7 144.3 333.3 141.7 318.2 140.8C303 140 288 141 272.8 141C257.7 141 242.3 140 227.2 142C212 144 197 149 181.8 152.3C166.7 155.7 151.3 157.3 136.2 154.5C121 151.7 106 144.3 90.8 142.3C75.7 140.3 60.3 143.7 45.2 146.2C30 148.7 15 150.3 7.5 151.2L0 152Z" fill="#06a77d"></path><path d="M0 184L7.5 184C15 184 30 184 45.2 182.3C60.3 180.7 75.7 177.3 90.8 179.8C106 182.3 121 190.7 136.2 191.8C151.3 193 166.7 187 181.8 183.2C197 179.3 212 177.7 227.2 176.8C242.3 176 257.7 176 272.8 177.7C288 179.3 303 182.7 318.2 183.5C333.3 184.3 348.7 182.7 363.8 180.2C379 177.7 394 174.3 409.2 172.7C424.3 171 439.7 171 454.8 171.5C470 172 485 173 492.5 173.5L500 174L500 159L492.5 158.2C485 157.3 470 155.7 454.8 156.2C439.7 156.7 424.3 159.3 409.2 162.3C394 165.3 379 168.7 363.8 169C348.7 169.3 333.3 166.7 318.2 165.3C303 164 288 164 272.8 162.8C257.7 161.7 242.3 159.3 227.2 160.2C212 161 197 165 181.8 170C166.7 175 151.3 181 136.2 179.3C121 177.7 106 168.3 90.8 166.2C75.7 164 60.3 169 45.2 170.7C30 172.3 15 170.7 7.5 169.8L0 169Z" fill="#1fae85"></path><path d="M0 196L7.5 197.7C15 199.3 30 202.7 45.2 202.3C60.3 202 75.7 198 90.8 199.3C106 200.7 121 207.3 136.2 208.5C151.3 209.7 166.7 205.3 181.8 203.7C197 202 212 203 227.2 201.8C242.3 200.7 257.7 197.3 272.8 197.7C288 198 303 202 318.2 202.8C333.3 203.7 348.7 201.3 363.8 200.2C379 199 394 199 409.2 197.7C424.3 196.3 439.7 193.7 454.8 193.7C470 193.7 485 196.3 492.5 197.7L500 199L500 172L492.5 171.5C485 171 470 170 454.8 169.5C439.7 169 424.3 169 409.2 170.7C394 172.3 379 175.7 363.8 178.2C348.7 180.7 333.3 182.3 318.2 181.5C303 180.7 288 177.3 272.8 175.7C257.7 174 242.3 174 227.2 174.8C212 175.7 197 177.3 181.8 181.2C166.7 185 151.3 191 136.2 189.8C121 188.7 106 180.3 90.8 177.8C75.7 175.3 60.3 178.7 45.2 180.3C30 182 15 182 7.5 182L0 182Z" fill="#2fb58d"></path><path d="M0 214L7.5 214C15 214 30 214 45.2 212.3C60.3 210.7 75.7 207.3 90.8 208.5C106 209.7 121 215.3 136.2 217.3C151.3 219.3 166.7 217.7 181.8 216.8C197 216 212 216 227.2 216C242.3 216 257.7 216 272.8 215.7C288 215.3 303 214.7 318.2 214.7C333.3 214.7 348.7 215.3 363.8 214.5C379 213.7 394 211.3 409.2 211C424.3 210.7 439.7 212.3 454.8 214.3C470 216.3 485 218.7 492.5 219.8L500 221L500 197L492.5 195.7C485 194.3 470 191.7 454.8 191.7C439.7 191.7 424.3 194.3 409.2 195.7C394 197 379 197 363.8 198.2C348.7 199.3 333.3 201.7 318.2 200.8C303 200 288 196 272.8 195.7C257.7 195.3 242.3 198.7 227.2 199.8C212 201 197 200 181.8 201.7C166.7 203.3 151.3 207.7 136.2 206.5C121 205.3 106 198.7 90.8 197.3C75.7 196 60.3 200 45.2 200.3C30 200.7 15 197.3 7.5 195.7L0 194Z" fill="#3cbc96"></path><path d="M0 251L7.5 251C15 251 30 251 45.2 251C60.3 251 75.7 251 90.8 251C106 251 121 251 136.2 251C151.3 251 166.7 251 181.8 251C197 251 212 251 227.2 251C242.3 251 257.7 251 272.8 251C288 251 303 251 318.2 251C333.3 251 348.7 251 363.8 251C379 251 394 251 409.2 251C424.3 251 439.7 251 454.8 251C470 251 485 251 492.5 251L500 251L500 219L492.5 217.8C485 216.7 470 214.3 454.8 212.3C439.7 210.3 424.3 208.7 409.2 209C394 209.3 379 211.7 363.8 212.5C348.7 213.3 333.3 212.7 318.2 212.7C303 212.7 288 213.3 272.8 213.7C257.7 214 242.3 214 227.2 214C212 214 197 214 181.8 214.8C166.7 215.7 151.3 217.3 136.2 215.3C121 213.3 106 207.7 90.8 206.5C75.7 205.3 60.3 208.7 45.2 210.3C30 212 15 212 7.5 212L0 212Z" fill="#47c39e"></path></svg>