<svg xmlns="http://www.w3.org/2000/svg" version="1.1" xmlns:xlink="http://www.w3.org/1999/xlink" xmlns:svgjs="http://svgjs.dev/svgjs" viewBox="0 0 1920 1080" class="overflow-hidden rounded-md drop-shadow-lg transition duration-300" style="overflow: hidden; height: 85vh;"><rect width="1920" height="1080" fill="#22194d"/><g clip-path="url(&quot;#SvgjsClipPath1140&quot;)"><g transform="matrix(-2.112515728529184e-16,-1.15,1.15,-2.112515728529184e-16,339.0000000000002,1644.0000000000002)"><path d="M0,-1080C5.9064962325791015,-987.8884128801417,32.386461778544636,-717.6809278141009,35.43897739547461,-527.3304772808498C38.49149301240458,-336.9800267475987,23.04707303224306,-107.74080923702218,18.315093701579826,62.10270319950624C13.583114370916594,231.94621563603465,7.179653962719736,315.55703448927966,7.04710141149522,491.73059733832065C6.9145488602707035,667.9041601873616,18.12890395883576,932.2902396659892,17.51977839423273,1119.1440802937525C16.9106528296297,1305.9979209215157,6.3123110895825025,1439.377654487192,3.392348023877048,1612.8536411049C0.4723849581715931,1786.3296277226077,0.5653913373128413,2068.80894018415,0,2160L 1920 2160 L 1920 -1080 Z" fill="url(&quot;#SvgjsLinearGradient1129&quot;)"/><path d="M174.54545454545456,-1080C166.62408351018917,-986.2343852683508,127.9691886461548,-705.9967231009324,127.01722833386228,-517.4063116101051C126.06526802156975,-328.8159001192779,150.33310963191346,-117.42460317255123,168.83369267169937,51.542468944963275C187.33427571148528,220.50954106247778,234.852667984698,333.2940386894203,238.0207265725778,496.39612109498194C241.18878516045757,659.4982035005436,194.96178816305022,845.3968110224483,187.8420441989781,1030.1549633783332C180.722300234906,1214.9131157342179,197.51836106373233,1416.6375291266795,195.30226278814507,1604.9450352302906C193.08616451255781,1793.2525413339017,178.004922585903,2067.4908392050484,174.54545454545456,2160L 1920 2160 L 1920 -1080 Z" fill="url(&quot;#SvgjsLinearGradient1130&quot;)"/><path d="M349.0909090909091,-1080C359.55390037585164,-955.5853552237513,416.7188686983332,-596.5790727028516,411.86885680056434,-333.51213134250804C407.0188449027955,-70.44518998216455,331.27345707722503,213.92950564034282,319.9908377042958,498.40164816206084C308.7082183313666,782.8737906837789,339.3231286652202,1096.3876651481435,344.1731405629891,1373.3207237878C349.02315246075796,1650.2537824274566,348.2712810029225,2028.8867872979667,349.0909090909091,2160L 1920 2160 L 1920 -1080 Z" fill="url(&quot;#SvgjsLinearGradient1131&quot;)"/><path d="M523.6363636363636,-1080C515.5475526990441,-994.0915525681725,483.1440001606953,-724.5965938259365,475.1034980124467,-564.5493154090348C467.0629958641981,-404.50203699213307,469.7845718500888,-261.6195685040567,475.393350746872,-119.71632949858969C481.00212964365517,22.1869095068773,503.99462933368267,139.0761816840711,508.7561713931457,286.8701186237672C513.5177134526087,434.6640555634633,501.6829461232128,619.3885179832038,503.96260310365017,767.0472921395872C506.24226008408755,914.7060662959706,523.86455908642,1014.1497114473051,522.43411327577,1172.8227635620674C521.00366746512,1331.4958156768296,495.1795531796515,1554.5560654218386,495.3799282397505,1719.0856048281607C495.58030329984945,1883.6151442344828,518.9269577369281,2086.51426747136,523.6363636363636,2160L 1920 2160 L 1920 -1080 Z" fill="url(&quot;#SvgjsLinearGradient1132&quot;)"/><path d="M698.1818181818182,-1080C690.2936354030768,-1002.8572432503101,648.5851287055586,-775.7519005845244,650.8527215093698,-617.143459501861C653.1203143131809,-458.5350184191976,712.6633721089634,-281.820132235749,711.7873750046853,-128.34935350401994C710.9113779004072,25.121425227709096,644.0433991679843,158.1406431888279,645.5967388837009,303.68121288851313C647.1500785994176,449.2217825881984,712.4050020226595,586.2483655738963,721.1074132989855,744.8940646940914C729.8098245753116,903.5397638142865,710.8983622829537,1087.1744893155849,697.8112065416574,1255.5554076096837C684.724050800361,1423.9363259037825,642.5227102445137,1604.4388090602984,642.5844788512072,1755.1795744586843C642.6462474579007,1905.9203398570703,688.9155949600497,2092.5299290764474,698.1818181818182,2160L 1920 2160 L 1920 -1080 Z" fill="url(&quot;#SvgjsLinearGradient1133&quot;)"/><path d="M872.7272727272727,-1080C865.2242254369187,-945.52447434189,833.386648580052,-535.8744700983268,827.7089889851482,-273.1468460513405C822.0313293902443,-10.41922200435414,830.528426808838,235.7420174973085,838.66131515785,496.3657442819183C846.794203506862,756.989471066528,870.8286594843162,1013.3231387033047,876.50631907922,1290.5955146563183C882.1839786741239,1567.8678906093319,873.3571137859307,2015.0992524427197,872.7272727272727,2160L 1920 2160 L 1920 -1080 Z" fill="url(&quot;#SvgjsLinearGradient1134&quot;)"/><path d="M1047.2727272727273,-1080C1053.8136219885396,-998.7899385692846,1092.170320087961,-746.636606245595,1086.5180955676005,-592.7396314157072C1080.86587104724,-438.84265658581944,1021.5895393549721,-312.22240781849496,1013.3593801505643,-156.61815102067342C1005.1292209461566,-1.0138942228518886,1021.0742627863251,179.56057684745647,1037.137140341154,340.88590937122206C1053.200017895983,502.21124189498767,1098.014638696519,669.7367480227541,1109.7366454795376,811.33384412192C1121.4586522625564,952.930940221086,1110.472236125973,1052.8781782337185,1107.4691810392658,1190.4684859662175C1104.4661259525585,1328.0587936987165,1101.751057253717,1475.2871048446166,1091.7183149592938,1636.8756905169137C1081.6855726648707,1798.4642761892108,1054.6803252204884,2072.812615086152,1047.2727272727273,2160L 1920 2160 L 1920 -1080 Z" fill="url(&quot;#SvgjsLinearGradient1135&quot;)"/><path d="M1221.8181818181818,-1080C1224.063196781808,-963.9280467590377,1240.6825783648324,-591.3419743027084,1235.2882715999394,-383.5682805542259C1229.8939648350465,-175.79458680574342,1201.8297538004597,-46.03346229149548,1189.4523412288238,166.64216249089495C1177.074928657188,379.3177872732854,1147.5328926901457,661.5702312819562,1161.0237961701241,892.4854681401167C1174.5146996501026,1123.4007049982772,1260.265364500685,1340.8811616632106,1270.3977621086947,1552.1335836398578C1280.5301597167042,1763.386005616505,1229.9147785332673,2058.6889306066428,1221.8181818181818,2160L 1920 2160 L 1920 -1080 Z" fill="url(&quot;#SvgjsLinearGradient1136&quot;)"/><path d="M1396.3636363636365,-1080C1405.0504255272933,-973.4827302030124,1452.8917357430403,-655.7624022880008,1448.4843713455775,-440.89638121807377C1444.0770069481148,-226.0303601481468,1384.7888078841775,-11.85372955485306,1369.9194499788596,209.19612641956172C1355.0500920735417,430.24598239397653,1357.7754592325982,665.209397834397,1359.2682239136702,885.4027546284149C1360.7609885947422,1105.5961114224328,1372.6934693236306,1317.9233929550714,1378.8760380652916,1530.356267183669C1385.0586068069526,1742.7891414122664,1393.4490366472457,2055.059377863945,1396.3636363636365,2160L 1920 2160 L 1920 -1080 Z" fill="url(&quot;#SvgjsLinearGradient1137&quot;)"/><path d="M1570.909090909091,-1080C1573.9636018837573,-988.6644169210031,1580.4083194755929,-715.240722795462,1589.2361567570888,-531.9865015260184C1598.0639940385847,-348.73228025657477,1629.4755062849079,-150.69453430801013,1623.8761145980666,19.525327616661713C1618.2767229112253,189.74518954133356,1559.7404131759624,309.49821222613434,1555.6398066360416,489.33267002201273C1551.5392000961208,669.1671278178911,1591.4624995463969,915.7982225969395,1599.2724753585412,1098.532074391932C1607.0824511706855,1281.2659261869244,1607.226892250482,1408.8244598572892,1602.499661508907,1585.7357807919673C1597.7724307673318,1762.6471017266454,1576.1741860090603,2064.2892967986613,1570.909090909091,2160L 1920 2160 L 1920 -1080 Z" fill="url(&quot;#SvgjsLinearGradient1138&quot;)"/><path d="M1745.4545454545455,-1080C1737.1820869403568,-1006.7553728367311,1705.2592976891942,-794.0544069983584,1695.819794369414,-640.5322370203869C1686.3802910496338,-487.01006704241536,1674.7044508106178,-324.2762163495172,1688.8175255358638,-158.86698013217074C1702.9306002611097,6.5422560851757225,1760.6634377798546,188.38548578767342,1780.4982427208897,351.9231802836919C1800.3330476619249,515.4608747797104,1807.7151691588972,682.6131285208252,1807.8263551820742,822.3591868439403C1807.9375412052511,962.1052451670554,1783.4423920089655,1051.2478589027087,1781.165358859952,1190.3995302223827C1778.8883257109385,1329.5512015420568,1800.115958522228,1495.6691364657154,1794.1641562879936,1657.269214761985C1788.212354053759,1818.8692930582547,1753.572813926787,2076.211535793664,1745.4545454545455,2160L 1920 2160 L 1920 -1080 Z" fill="url(&quot;#SvgjsLinearGradient1139&quot;)"/></g></g><defs><linearGradient x1="0.1" y1="0" x2="0" y2="1" id="SvgjsLinearGradient1129"><stop stop-color="#22194d" offset="0"/><stop stop-color="#19194d" offset="0"/></linearGradient><linearGradient x1="0.1" y1="0" x2="0" y2="1" id="SvgjsLinearGradient1130"><stop stop-color="#2f236b" offset="0"/><stop stop-color="#23236b" offset="0.09090909090909091"/></linearGradient><linearGradient x1="0.1" y1="0" x2="0" y2="1" id="SvgjsLinearGradient1131"><stop stop-color="#3d2d8a" offset="0"/><stop stop-color="#2e2d8a" offset="0.18181818181818182"/></linearGradient><linearGradient x1="0.1" y1="0" x2="0" y2="1" id="SvgjsLinearGradient1132"><stop stop-color="#4a37a8" offset="0"/><stop stop-color="#3737a8" offset="0.2727272727272727"/></linearGradient><linearGradient x1="0.1" y1="0" x2="0" y2="1" id="SvgjsLinearGradient1133"><stop stop-color="#5a45c2" offset="0"/><stop stop-color="#4545c2" offset="0.36363636363636365"/></linearGradient><linearGradient x1="0.1" y1="0" x2="0" y2="1" id="SvgjsLinearGradient1134"><stop stop-color="#7563cc" offset="0"/><stop stop-color="#6363cc" offset="0.45454545454545453"/></linearGradient><linearGradient x1="0.1" y1="0" x2="0" y2="1" id="SvgjsLinearGradient1135"><stop stop-color="#9081d6" offset="0"/><stop stop-color="#8281d6" offset="0.5454545454545454"/></linearGradient><linearGradient x1="0.1" y1="0" x2="0" y2="1" id="SvgjsLinearGradient1136"><stop stop-color="#aba0e0" offset="0"/><stop stop-color="#a0a0e0" offset="0.6363636363636364"/></linearGradient><linearGradient x1="0.1" y1="0" x2="0" y2="1" id="SvgjsLinearGradient1137"><stop stop-color="#c6beea" offset="0"/><stop stop-color="#bfbeea" offset="0.7272727272727273"/></linearGradient><linearGradient x1="0.1" y1="0" x2="0" y2="1" id="SvgjsLinearGradient1138"><stop stop-color="#e1dcf4" offset="0"/><stop stop-color="#dddcf4" offset="0.8181818181818182"/></linearGradient><linearGradient x1="0.1" y1="0" x2="0" y2="1" id="SvgjsLinearGradient1139"><stop stop-color="#fbfbfe" offset="0"/><stop stop-color="#fbfbfe" offset="0.9090909090909091"/></linearGradient><clipPath id="SvgjsClipPath1140"><rect width="1920" height="1080"/></clipPath></defs></svg>